<?xml version="1.0" encoding="utf-8"?>
<!-- Generator: Adobe Illustrator 26.3.1, SVG Export Plug-In . SVG Version: 6.00 Build 0)  -->
<svg version="1.1" id="Layer_1" xmlns="http://www.w3.org/2000/svg" viewBox="0 0 228.5 201.5" style="enable-background:new 0 0 228.5 201.5;" xml:space="preserve">
<style type="text/css">
	.st0{fill-rule:evenodd;clip-rule:evenodd;fill:url(#SVGID_1_);}
	.st1{fill-rule:evenodd;clip-rule:evenodd;fill:url(#SVGID_00000016753434974256012340000001680638398053512123_);}
	.st2{fill-rule:evenodd;clip-rule:evenodd;fill:url(#SVGID_00000080192324697989159340000001882563544383954621_);}
	.st3{fill-rule:evenodd;clip-rule:evenodd;fill:url(#SVGID_00000004547556388425787150000014970013152597077694_);}
	.st4{fill-rule:evenodd;clip-rule:evenodd;fill:url(#SVGID_00000111179136177249956800000001734201229347038654_);}
	.st5{fill-rule:evenodd;clip-rule:evenodd;fill:url(#SVGID_00000179608035353437988170000007483213863189026996_);}
	.st6{fill-rule:evenodd;clip-rule:evenodd;fill:#FFFFFF;}
</style>
<g>
	<g>
		<g>
			
				<linearGradient id="SVGID_1_" gradientUnits="userSpaceOnUse" x1="112.1546" y1="590.2936" x2="112.1546" y2="536.0836" gradientTransform="matrix(1 -1.900000e-03 1.900000e-03 1 0.6293 -535.8666)">
				<stop  offset="0" style="stop-color:#E02F80"/>
				<stop  offset="1" style="stop-color:#723685"/>
			</linearGradient>
			<path class="st0" d="M62.5,25.1c51.4,29.2,51.4,29.2,51.4,29.2L165.2,25L113.8,0L62.5,25.1z"/>
			
				<linearGradient id="SVGID_00000130618902220314159420000002420631066750078105_" gradientUnits="userSpaceOnUse" x1="112.1547" y1="592.1877" x2="112.1547" y2="568.8271" gradientTransform="matrix(1 -1.900000e-03 1.900000e-03 1 0.6293 -535.8666)">
				<stop  offset="0" style="stop-color:#E02F80"/>
				<stop  offset="1" style="stop-color:#723685"/>
			</linearGradient>
			<path style="fill-rule:evenodd;clip-rule:evenodd;fill:url(#SVGID_00000130618902220314159420000002420631066750078105_);" d="
				M113.9,54.2c17.1-9.8,34.2-19.6,51.3-29.3c-34.7,17.8-69,17.8-102.7,0.2C79.7,34.8,96.8,44.5,113.9,54.2z"/>
			
				<linearGradient id="SVGID_00000132078669102709683200000007299733929461466290_" gradientUnits="userSpaceOnUse" x1="138.361" y1="639.9598" x2="142.7777" y2="590.876" gradientTransform="matrix(1 -1.900000e-03 1.900000e-03 1 0.6293 -535.8666)">
				<stop  offset="0" style="stop-color:#F1A721"/>
				<stop  offset="0.95" style="stop-color:#D94E26"/>
				<stop  offset="1" style="stop-color:#D94E26"/>
			</linearGradient>
			
				<polygon style="fill-rule:evenodd;clip-rule:evenodd;fill:url(#SVGID_00000132078669102709683200000007299733929461466290_);" points="
				120.4,64.8 169.3,37.4 159.4,85.6 119.5,121.6 			"/>
			
				<linearGradient id="SVGID_00000117649804130398562880000011797942422287667115_" gradientUnits="userSpaceOnUse" x1="110.4624" y1="643.0427" x2="157.6557" y2="575.0131" gradientTransform="matrix(1 -1.900000e-03 1.900000e-03 1 0.6293 -535.8666)">
				<stop  offset="0" style="stop-color:#D73E27"/>
				<stop  offset="1" style="stop-color:#EF9F20"/>
			</linearGradient>
			<path style="fill-rule:evenodd;clip-rule:evenodd;fill:url(#SVGID_00000117649804130398562880000011797942422287667115_);" d="
				M122.9,65.2c8.7-5.2,26.5-14.3,45.3-25.8c-29.5,23.3-43.8,56.6-46,79.7C122,102.5,122.8,82.3,122.9,65.2z"/>
			
				<linearGradient id="SVGID_00000178177664108197104660000009231444048778451378_" gradientUnits="userSpaceOnUse" x1="73.4444" y1="591.0966" x2="101.6834" y2="633.378" gradientTransform="matrix(1 -1.900000e-03 1.900000e-03 1 0.6293 -535.8666)">
				<stop  offset="0" style="stop-color:#53BBEA"/>
				<stop  offset="1" style="stop-color:#D6E9F1"/>
			</linearGradient>
			
				<polygon style="fill-rule:evenodd;clip-rule:evenodd;fill:url(#SVGID_00000178177664108197104660000009231444048778451378_);" points="
				108.2,64.8 59.3,37.6 69.3,85.8 109.3,121.6 			"/>
			
				<linearGradient id="SVGID_00000183245691266903517010000014760373589591366825_" gradientUnits="userSpaceOnUse" x1="116.4407" y1="533.3054" x2="46.515" y2="701.5781" gradientTransform="matrix(1 -1.900000e-03 1.900000e-03 1 0.6293 -535.8666)">
				<stop  offset="0" style="stop-color:#B2D9E7"/>
				<stop  offset="1" style="stop-color:#45B8E7"/>
			</linearGradient>
			<path style="fill-rule:evenodd;clip-rule:evenodd;fill:url(#SVGID_00000183245691266903517010000014760373589591366825_);" d="
				M105.8,65.3c-8.7-5.2-26.5-14.2-45.4-25.6c29.6,23.2,44.7,57.2,47.1,80.2C107.6,103.2,105.6,81.9,105.8,65.3z"/>
		</g>
	</g>
	<path class="st6" d="M228.5,162.4v15.5h-2.2v-14.1c0-4.9-2.8-8.1-7.5-8.1c-4.6,0-8.2,3.5-8.2,8.5v13.7h-2.3V144h2.3v14.6
		c1.6-2.8,4.2-4.9,8.6-4.9C224.7,153.7,228.1,157.3,228.5,162.4L228.5,162.4z M191.5,178.4h-1.4c-6.5-0.4-11.4-5.9-11.4-12.3V166
		c0-6.6,5.3-12.4,12.1-12.4c4.5,0,7.2,2,9.5,4.3l-1.7,1.7c-2-2.1-4.4-3.9-7.9-3.9c-5.4,0-9.5,4.5-9.5,10.2v0.1
		c0,5.7,4.3,10.2,9.8,10.2c3.3,0,5.9-1.7,7.9-4l1.6,1.4C198.1,176.3,195.4,178.2,191.5,178.4L191.5,178.4z M160.8,178.4h-1.4
		c-5.5-0.3-8.8-4.2-8.8-9.7v-14.5h2.3v14.1c0,4.9,2.8,8.1,7.6,8.1c4.6,0,8.2-3.5,8.2-8.4v-13.7h2.3V178h-2.3v-4.4
		C167.2,176.1,164.7,178.2,160.8,178.4L160.8,178.4z M131.9,178.4h-1.4c-6.6-0.4-11.4-5.9-11.4-12.3V166c0-6.6,5.2-12.4,12.2-12.4
		c7.1,0,12.2,5.6,12.2,12.3v0.1C143.4,172.5,138.6,178.1,131.9,178.4L131.9,178.4z M49.3,178.4h-1.5c-5.9-0.3-11-5.2-11-12.3V166
		c0-6.9,4.8-12.3,11.3-12.3c6.7,0,10.8,5.3,10.8,12.4c0,0.4,0,0.5-0.1,0.9H39.3c0.4,5.9,4.7,9.4,9.3,9.4c3.7,0,6.2-1.6,8.2-3.7
		l1.6,1.4C56.1,176.4,53.4,178.2,49.3,178.4L49.3,178.4z M0,177.9v-32.5h2.3l22.5,28.3v-28.3h2.3v32.5h-1.9L2.3,149v28.9H0L0,177.9z
		 M48,155.7c-4.7,0-8.3,4-8.8,9.2h17.3C56.2,160.1,53.5,155.7,48,155.7L48,155.7z M86.7,177.9h-2.9l-8.3-10.6l-8.4,10.6h-2.8l9.7-12
		l-9.3-11.6h2.8l8,10l8-10h2.8L77,165.9L86.7,177.9z M105,147.6v30.3h-2.4v-30.3H91.2v-2.3h25.1v2.3H105z M140.9,166.1
		c0-5.8-4.3-10.3-9.8-10.3c-5.6,0-9.6,4.6-9.6,10.2v0.1c0,5.7,4.2,10.2,9.7,10.2C136.8,176.3,140.9,171.7,140.9,166.1L140.9,166.1
		L140.9,166.1z"/>
	<path class="st6" d="M13.7,201.3v-10.7h0.8v10.7H13.7z M136.1,201.5h-1.6c-2.8-0.4-4.6-2.8-4.6-5.4V196c0-2.9,2.1-5.5,5.3-5.5
		s5.4,2.6,5.4,5.5l0,0C140.7,198.7,138.9,201.1,136.1,201.5L136.1,201.5z M63.1,201.5h-1.5c-2.8-0.4-4.6-2.8-4.6-5.4V196
		c0-2.9,2.2-5.5,5.4-5.5c3.2,0,5.4,2.6,5.4,5.5l0,0C67.7,198.7,65.9,201.1,63.1,201.5L63.1,201.5z M31.2,201.3l-7.6-9.5v9.5h-0.7
		v-10.7h0.7l7.4,9.3v-9.3h0.8v10.7H31.2z M48.5,201.3l-7.6-9.5v9.5h-0.8v-10.7h0.8l7.4,9.3v-9.3h0.8v10.7H48.5z M66.9,196
		c0-2.6-1.9-4.8-4.6-4.8c-2.6,0-4.6,2.2-4.6,4.8l0,0c0,2.6,1.9,4.9,4.6,4.9C65,200.8,66.9,198.7,66.9,196L66.9,196z M79.5,201.4
		h-0.7l-4.7-10.8H75l4.1,9.8l4.2-9.8h0.8L79.5,201.4z M99,201.3l-1.3-2.9h-6.3l-1.4,2.9h-0.8l5-10.7H95l5,10.7H99z M94.5,191.5
		l-2.8,6.2h5.6L94.5,191.5z M109.7,191.4v9.9h-0.8v-9.9h-3.7v-0.8h8.2v0.8H109.7z M121.2,201.3v-10.7h0.8v10.7H121.2z M139.9,196
		c0-2.6-1.9-4.8-4.6-4.8c-2.6,0-4.6,2.2-4.6,4.8l0,0c0,2.6,1.9,4.9,4.6,4.9C138,200.8,139.9,198.7,139.9,196L139.9,196z
		 M156.9,201.3l-7.6-9.5v9.5h-0.7v-10.7h0.7l7.4,9.3v-9.3h0.8v10.7H156.9z M175.7,201.3v-10.7h0.8v9.9h6.2v0.7h-7V201.3z
		 M198.6,201.3l-1.4-2.9h-6.3l-1.4,2.9h-0.8l5-10.7h0.8l5,10.7H198.6z M194.1,191.5l-2.8,6.2h5.6L194.1,191.5z M214.8,198.4
		L214.8,198.4c0,1.9-1.6,2.9-3.8,2.9h-4.7v-10.7h4.4c1.2,0,2.2,0.4,2.8,1c0.5,0.5,0.7,1,0.7,1.7v0.1c0,1.4-1,2.2-1.9,2.5
		C213.7,196.2,214.8,196.9,214.8,198.4L214.8,198.4z M213.4,193.4L213.4,193.4c0-1.2-1-2-2.6-2h-3.6v4.2h3.5
		C212.2,195.6,213.4,194.8,213.4,193.4L213.4,193.4z M214,198.4c0-1.3-1.1-2-3.2-2h-3.6v4.2h3.8C212.8,200.6,214,199.7,214,198.4
		L214,198.4z"/>
</g>
</svg>
